<svg width="116" height="36" viewBox="0 0 116 36" fill="none" xmlns="http://www.w3.org/2000/svg">
<path d="M0 0H115.5V12.3053L114.218 12.915C113.254 13.3706 112.44 14.0903 111.87 14.9906C111.3 15.8908 110.997 16.9344 110.997 18C110.997 19.0656 111.3 20.1092 111.87 21.0094C112.44 21.9097 113.254 22.6294 114.218 23.085L115.5 23.6947V36H0V23.6947L1.2825 23.085C2.24576 22.6294 3.05981 21.9097 3.62989 21.0094C4.19997 20.1092 4.50263 19.0656 4.50263 18C4.50263 16.9344 4.19997 15.8908 3.62989 14.9906C3.05981 14.0903 2.24576 13.3706 1.2825 12.915L0 12.3075V0Z" fill="#DC4B4B"/>
<g clip-path="url(#clip0_7588_3492)">
<g clip-path="url(#clip1_7588_3492)">
<g clip-path="url(#clip2_7588_3492)">
<g clip-path="url(#clip3_7588_3492)">
<g clip-path="url(#clip4_7588_3492)">
<g clip-path="url(#clip5_7588_3492)">
<g clip-path="url(#clip6_7588_3492)">
<path d="M12.8051 24.9078V24.8665C12.8381 24.3767 12.8711 23.9033 12.9042 23.4464C12.9399 22.9896 12.9702 22.5465 12.9949 22.1172L13.358 17.3573C13.3992 16.994 13.4336 16.6638 13.4611 16.3665C13.4859 16.0666 13.5079 15.7735 13.5271 15.4872C13.5436 15.2038 13.5601 14.9148 13.5767 14.6203C13.5932 14.3286 13.611 14.0052 13.6303 13.6502C13.4102 13.6419 13.1778 13.6378 12.933 13.6378C12.6855 13.6378 12.4283 13.6378 12.1615 13.6378H10.2183C10.144 13.6378 10.0986 13.6103 10.0821 13.5552C10.0656 13.4974 10.0574 13.4451 10.0574 13.3984V13.3282L11.1631 10.4136L11.1548 10.3724C11.1548 10.3393 11.1768 10.3118 11.2208 10.2898C11.2621 10.265 11.3611 10.2458 11.5179 10.232C12.4421 10.1797 13.3401 10.1274 14.212 10.0751C15.0812 10.0256 15.9407 9.98019 16.7906 9.9389C17.6378 9.90037 18.4863 9.86047 19.3362 9.81919C20.1861 9.7779 21.0608 9.74075 21.9602 9.70772C22.0427 9.70772 22.1294 9.71873 22.2201 9.74075C22.3081 9.76001 22.3522 9.83294 22.3522 9.95954C22.3522 9.9733 22.3494 9.98707 22.3439 10.0008C22.3384 10.0146 22.3357 10.0283 22.3357 10.0421C22.2284 10.3173 22.1294 10.5788 22.0386 10.8265C21.9478 11.0769 21.8584 11.3219 21.7704 11.5613C21.6824 11.8035 21.593 12.0498 21.5022 12.3002C21.4115 12.5479 21.3125 12.8094 21.2052 13.0846C21.1997 13.0929 21.1859 13.1245 21.1639 13.1796C21.1447 13.2374 21.1144 13.302 21.0732 13.3736C21.0347 13.4424 20.981 13.5071 20.9123 13.5676C20.8463 13.6282 20.7624 13.6626 20.6606 13.6708C20.6276 13.6626 20.5946 13.6584 20.5616 13.6584C20.5286 13.6584 20.4914 13.6584 20.4502 13.6584H17.7602C17.7272 14.0024 17.6955 14.3657 17.6653 14.7483C17.635 15.1308 17.5993 15.5037 17.558 15.867L16.8236 23.7395C16.8181 23.8001 16.8071 23.8606 16.7906 23.9212C16.7714 23.9817 16.726 24.0244 16.6545 24.0492L13.8036 25.0771C13.7293 25.1046 13.6317 25.139 13.5106 25.1803C13.3896 25.2188 13.2713 25.2381 13.1558 25.2381C13.0623 25.2381 12.9812 25.2147 12.9124 25.1679C12.8409 25.1211 12.8051 25.0344 12.8051 24.9078ZM22.3439 20.2718C22.4319 19.3499 22.5186 18.4389 22.6038 17.539C22.6918 16.639 22.7689 15.7157 22.8349 14.7689C22.8486 14.546 22.8706 14.3933 22.9009 14.3107C22.9311 14.2254 23.0068 14.169 23.1278 14.1414C23.6999 14.0286 24.2981 13.9103 24.9225 13.7864C25.5469 13.6626 26.1506 13.5029 26.7337 13.3075C26.7557 13.2993 26.786 13.2951 26.8245 13.2951C26.8988 13.2951 26.9359 13.3227 26.9359 13.3777L26.0282 23.1946C26.009 23.4148 25.9856 23.5675 25.9581 23.6528C25.9306 23.7354 25.8577 23.7905 25.7394 23.818C25.1673 23.9941 24.5897 24.1895 24.0066 24.4042C23.4207 24.6189 22.8019 24.8376 22.15 25.0606C22.1307 25.0661 22.1005 25.0688 22.0592 25.0688C21.9877 25.0688 21.952 25.0358 21.952 24.9697C21.952 24.9615 21.9575 24.8707 21.9685 24.6973C21.9822 24.5212 22.0015 24.2955 22.0262 24.0203C22.0482 23.745 22.073 23.4354 22.1005 23.0914C22.128 22.7501 22.1569 22.4075 22.1871 22.0635C22.2174 21.7222 22.2463 21.3933 22.2738 21.0768C22.2985 20.7603 22.3219 20.492 22.3439 20.2718ZM23.0989 12.2301C23.1182 11.9411 23.1333 11.7182 23.1443 11.5613C23.1553 11.4072 23.1636 11.2916 23.1691 11.2145C23.1746 11.1375 23.1773 11.0893 23.1773 11.07C23.1773 11.0508 23.1801 11.0356 23.1856 11.0246C23.1883 11.0136 23.1911 10.993 23.1938 10.9627C23.1966 10.9324 23.2021 10.8691 23.2103 10.7728C23.2158 10.6737 23.2254 10.5306 23.2392 10.3435C23.2529 10.1563 23.2736 9.89762 23.3011 9.56736C23.3148 9.34719 23.3368 9.19445 23.3671 9.10913C23.3974 9.02381 23.473 8.96877 23.594 8.944C24.1634 8.82841 24.7602 8.70869 25.3846 8.58485C26.009 8.461 26.6141 8.30138 27.1999 8.10597C27.2192 8.10047 27.2494 8.09772 27.2907 8.09772C27.31 8.13625 27.3361 8.16239 27.3691 8.17615L27.398 8.1968L27.1793 10.9586C27.1573 11.1815 27.1312 11.3356 27.1009 11.4209C27.0707 11.509 26.9991 11.5627 26.8864 11.5819C26.3143 11.6893 25.7367 11.8076 25.1536 11.937C24.5704 12.0636 23.953 12.1915 23.3011 12.3209C23.2791 12.3264 23.2488 12.3291 23.2103 12.3291C23.1361 12.3291 23.0989 12.2961 23.0989 12.2301ZM28.0416 19.6278C28.0416 18.7471 28.2052 17.9215 28.5326 17.1509C28.8571 16.3831 29.3068 15.7129 29.8817 15.1405C30.4565 14.5708 31.1345 14.1208 31.9157 13.7905C32.6996 13.4603 33.5509 13.2951 34.4695 13.2951C35.0939 13.2951 35.6275 13.3461 36.0703 13.4479C36.5132 13.5497 36.8762 13.6626 37.1595 13.7864C37.4401 13.9103 37.6464 14.0245 37.7784 14.129C37.9104 14.2336 37.9764 14.2887 37.9764 14.2942C37.9764 14.3355 37.9613 14.4483 37.9311 14.6327C37.9008 14.8171 37.8664 15.0317 37.8279 15.2767C37.7922 15.5216 37.7591 15.7735 37.7289 16.0322C37.6986 16.2909 37.6835 16.5152 37.6835 16.7051C37.6835 16.7381 37.6725 16.7739 37.6505 16.8124C37.6312 16.8537 37.5776 16.8743 37.4896 16.8743C37.4098 16.8743 37.2929 16.8454 37.1389 16.7876C36.9849 16.7326 36.7951 16.6707 36.5695 16.6018C36.344 16.5358 36.0855 16.4739 35.7939 16.4161C35.5023 16.3583 35.1778 16.3294 34.8202 16.3294C34.3774 16.3294 33.9786 16.4092 33.6238 16.5688C33.2689 16.7257 32.9636 16.9431 32.7078 17.2211C32.452 17.5018 32.2554 17.8334 32.1178 18.216C31.9803 18.5985 31.9116 19.0114 31.9116 19.4544C31.9116 19.9196 31.9831 20.3145 32.1261 20.6392C32.2719 20.964 32.4658 21.2296 32.7078 21.436C32.9499 21.6397 33.2277 21.7883 33.5412 21.8818C33.8575 21.9782 34.1904 22.0263 34.5397 22.0263C34.944 22.0263 35.3497 21.9699 35.7568 21.8571C36.1666 21.747 36.553 21.5915 36.9161 21.3906C36.9299 21.3823 36.9574 21.3782 36.9986 21.3782C37.0316 21.3782 37.0564 21.3961 37.0729 21.4319C37.0894 21.4649 37.0976 21.5282 37.0976 21.6218C37.0976 21.8364 37.0976 22.0965 37.0976 22.402C37.0976 22.7075 37.0963 23.0006 37.0935 23.2813C37.0908 23.5593 37.0853 23.796 37.077 23.9914C37.0715 24.1868 37.0646 24.2845 37.0564 24.2845C36.8171 24.4441 36.5558 24.5748 36.2725 24.6766C35.9892 24.7757 35.699 24.8555 35.402 24.9161C35.1022 24.9766 34.801 25.0179 34.4984 25.0399C34.1959 25.0592 33.9043 25.0688 33.6238 25.0688C32.8371 25.0688 32.1055 24.9381 31.4288 24.6766C30.7495 24.4152 30.1595 24.045 29.6589 23.5662C29.1583 23.09 28.7636 22.5176 28.4748 21.8488C28.186 21.18 28.0416 20.4397 28.0416 19.6278ZM44.2806 9.24536L43.9175 12.742C43.8708 13.2126 43.8213 13.6901 43.769 14.1745C43.7195 14.6588 43.6714 15.1226 43.6246 15.5657C43.5779 16.0088 43.5338 16.4188 43.4926 16.7959C43.4541 17.1702 43.4211 17.4784 43.3936 17.7206L44.0867 16.9569L45.2172 15.6358C45.3574 15.4735 45.495 15.3125 45.6297 15.1528C45.7645 14.9905 45.8855 14.8474 45.9928 14.7235C46.1001 14.5997 46.1867 14.4951 46.2527 14.4098C46.3215 14.3272 46.3614 14.279 46.3724 14.2653L50.4239 13.9804C50.4431 13.9749 50.4651 13.9722 50.4899 13.9722C50.5119 13.9722 50.5339 13.9722 50.5559 13.9722C50.6687 13.9722 50.7251 14.0024 50.7251 14.063C50.7251 14.1098 50.6549 14.2144 50.5146 14.3767L47.3626 17.9022C47.2195 18.0564 47.0531 18.2366 46.8633 18.443C46.6708 18.6467 46.4576 18.8737 46.2238 19.1242L47.6926 20.8746L50.2341 23.6074C50.2533 23.6405 50.2836 23.6652 50.3249 23.6817C50.3634 23.6983 50.4019 23.7134 50.4404 23.7272C50.4761 23.7409 50.5091 23.7561 50.5394 23.7726C50.5696 23.7891 50.5848 23.8152 50.5848 23.851C50.5848 23.8758 50.5793 23.895 50.5683 23.9088C50.56 23.9226 50.5284 23.9501 50.4734 23.9914C50.4129 24.0381 50.307 24.1056 50.1557 24.1936C50.0044 24.279 49.8284 24.3753 49.6276 24.4826C49.4268 24.59 49.2123 24.7 48.984 24.8129C48.7557 24.923 48.5343 25.0234 48.3197 25.1142C48.1052 25.2051 47.9072 25.2794 47.7256 25.3372C47.5441 25.3922 47.4024 25.4197 47.3007 25.4197C47.2209 25.4197 47.1425 25.4005 47.0655 25.3619C46.9885 25.3206 46.9018 25.2463 46.8056 25.139C46.6791 24.9904 46.5195 24.7977 46.327 24.5611C46.1372 24.3216 45.9309 24.0588 45.7081 23.7726C45.4881 23.4863 45.2625 23.1905 45.0315 22.885C44.7977 22.5795 44.5749 22.2878 44.3631 22.0098C44.1541 21.7319 43.9629 21.48 43.7896 21.2544C43.6191 21.0287 43.4871 20.8484 43.3936 20.7136C43.3606 20.7466 43.3262 20.7727 43.2904 20.792C43.2574 20.8085 43.2258 20.8291 43.1955 20.8539C43.1653 20.8814 43.1405 20.9145 43.1213 20.953C43.102 20.9888 43.0924 21.0397 43.0924 21.1057C43.0924 21.1333 43.0855 21.2089 43.0718 21.3328C43.058 21.4594 43.0429 21.608 43.0264 21.7786C43.0099 21.9493 42.9906 22.1323 42.9686 22.3277C42.9494 22.5231 42.9315 22.7061 42.915 22.8767C42.8985 23.0474 42.8833 23.1946 42.8696 23.3185C42.8558 23.4451 42.849 23.5207 42.849 23.5455C42.849 23.5923 42.8503 23.6308 42.8531 23.6611C42.8558 23.6914 42.8572 23.7203 42.8572 23.7478C42.8572 23.8221 42.8325 23.8771 42.783 23.9129C42.7334 23.9515 42.611 23.9969 42.4158 24.0492L39.7753 24.9078C39.7038 24.9353 39.6075 24.9684 39.4865 25.0069C39.3654 25.0482 39.2472 25.0688 39.1317 25.0688C39.0381 25.0688 38.9556 25.0454 38.8841 24.9986C38.8153 24.9519 38.781 24.8638 38.781 24.7344L40.0476 10.2114C40.0476 10.1783 40.0448 10.1467 40.0393 10.1164C40.0311 10.0861 40.0269 10.0545 40.0269 10.0215C40.0269 9.96092 40.0531 9.90588 40.1053 9.85634C40.1548 9.80405 40.2704 9.75451 40.4519 9.70772L43.2822 9.03482C43.3564 9.02106 43.4541 8.99079 43.5751 8.944C43.6961 8.89722 43.813 8.87382 43.9258 8.87382C44.0138 8.87382 44.0963 8.89309 44.1733 8.93162C44.2504 8.9729 44.2889 9.04996 44.2889 9.1628C44.2889 9.17656 44.2875 9.19032 44.2847 9.20408C44.282 9.21784 44.2806 9.2316 44.2806 9.24536ZM56.8807 13.2951C57.5188 13.2951 58.0978 13.4149 58.6176 13.6543C59.1375 13.8937 59.5831 14.2034 59.9544 14.5832C60.3285 14.9629 60.6159 15.3882 60.8167 15.8588C61.0175 16.3266 61.1179 16.7959 61.1179 17.2665C61.1179 17.6848 60.9913 18.1031 60.7383 18.5215C60.4825 18.9425 60.1249 19.321 59.6656 19.6567C59.2035 19.9925 58.6507 20.265 58.007 20.4741C57.3634 20.6805 56.6552 20.7837 55.8823 20.7837C55.4779 20.7837 55.0544 20.7438 54.6115 20.664C54.639 20.953 54.7229 21.2021 54.8632 21.4112C55.0062 21.6176 55.185 21.7883 55.3996 21.9231C55.6141 22.058 55.8575 22.1571 56.1298 22.2204C56.4021 22.2837 56.6827 22.3153 56.9715 22.3153C57.2933 22.3153 57.6027 22.2878 57.8998 22.2327C58.1996 22.1749 58.487 22.0993 58.762 22.0057C59.0371 21.9121 59.3025 21.8075 59.5583 21.6919C59.8141 21.5791 60.0562 21.4649 60.2845 21.3493C60.345 21.3355 60.3972 21.3245 60.4412 21.3163C60.4852 21.3053 60.5265 21.2998 60.565 21.2998C60.565 21.2998 60.5636 21.3534 60.5609 21.4608C60.5581 21.5681 60.5568 21.7195 60.5568 21.9149C60.5568 22.1103 60.5554 22.3456 60.5526 22.6208C60.5471 22.896 60.5416 23.2015 60.5361 23.5373C60.5554 23.5703 60.5691 23.6033 60.5774 23.6363C60.5829 23.6694 60.5856 23.6969 60.5856 23.7189C60.5856 23.7987 60.5114 23.8854 60.3628 23.979C60.2171 24.0726 60.0245 24.1703 59.7852 24.2721C59.5459 24.3739 59.2736 24.4716 58.9683 24.5652C58.663 24.6588 58.3522 24.7441 58.0359 24.8211C57.7224 24.8982 57.417 24.9587 57.12 25.0028C56.8257 25.0468 56.5671 25.0688 56.3443 25.0688C55.621 25.0688 54.9182 24.9422 54.2361 24.689C53.554 24.4386 52.9488 24.0781 52.4207 23.6074C51.8954 23.1368 51.4746 22.5658 51.1583 21.8942C50.8419 21.2227 50.6838 20.4672 50.6838 19.6278C50.6838 18.7471 50.8351 17.9215 51.1376 17.1509C51.4402 16.3831 51.8651 15.7129 52.4125 15.1405C52.9598 14.5708 53.6131 14.1208 54.3722 13.7905C55.1314 13.4603 55.9675 13.2951 56.8807 13.2951ZM56.7569 15.9785C56.4819 15.9785 56.2288 16.0377 55.9978 16.156C55.7667 16.2716 55.555 16.4395 55.3624 16.6596C55.1726 16.8771 55.0062 17.1385 54.8632 17.444C54.7229 17.7495 54.6088 18.0866 54.5208 18.4554C55.2139 18.3343 55.7887 18.2077 56.2453 18.0756C56.7019 17.9408 57.0677 17.8045 57.3428 17.6669C57.6178 17.5293 57.8131 17.3917 57.9286 17.2541C58.0414 17.1165 58.0978 16.983 58.0978 16.8537C58.0978 16.7326 58.0524 16.6184 57.9617 16.511C57.8709 16.4037 57.7581 16.3101 57.6233 16.2303C57.4886 16.1505 57.3428 16.0886 57.186 16.0445C57.0292 16.0005 56.8862 15.9785 56.7569 15.9785ZM69.6788 16.7752H67.8057C67.7122 17.4798 67.6242 18.183 67.5417 18.8848C67.4564 19.5866 67.4042 20.2429 67.3849 20.8539C67.3849 21.1181 67.4042 21.3369 67.4427 21.5103C67.4839 21.6864 67.5431 21.824 67.6201 21.9231C67.6971 22.025 67.7892 22.0979 67.8965 22.1419C68.0038 22.186 68.1248 22.208 68.2596 22.208C68.4741 22.208 68.7093 22.1749 68.9651 22.1089C69.2209 22.0456 69.4767 21.9644 69.7325 21.8653C69.8122 21.8296 69.881 21.8034 69.9388 21.7869C69.9938 21.7704 70.0419 21.7621 70.0832 21.7621C70.1492 21.7621 70.1945 21.7924 70.2193 21.8529C70.2441 21.9135 70.2674 22.0194 70.2894 22.1708C70.3142 22.3222 70.35 22.5258 70.3967 22.7818C70.4435 23.0377 70.5205 23.3597 70.6278 23.7478C70.6333 23.7808 70.6388 23.8097 70.6443 23.8345C70.647 23.8565 70.6484 23.8785 70.6484 23.9005C70.6484 23.9941 70.6126 24.0615 70.5411 24.1028C70.4723 24.1414 70.3568 24.1881 70.1945 24.2432C69.9195 24.3368 69.6293 24.4317 69.324 24.528C69.0187 24.6271 68.7161 24.7166 68.4163 24.7964C68.1165 24.8762 67.8291 24.9422 67.5541 24.9945C67.279 25.0441 67.037 25.0688 66.8279 25.0688C65.7085 25.0688 64.8916 24.7895 64.3772 24.2308C63.8629 23.6749 63.6057 22.8258 63.6057 21.6837C63.6057 21.4883 63.6126 21.2874 63.6263 21.081C63.6401 20.8773 63.6566 20.664 63.6758 20.4411C63.7446 19.7696 63.8037 19.1338 63.8532 18.5339C63.9028 17.9311 63.955 17.3546 64.01 16.8041H62.9538C62.5908 16.8041 62.3281 16.789 62.1658 16.7587C62.0063 16.7284 61.9265 16.6665 61.9265 16.573C61.9265 16.5454 61.9595 16.4725 62.0255 16.3542C62.0915 16.2386 62.1768 16.0982 62.2813 15.9331C62.3858 15.7679 62.4986 15.5918 62.6196 15.4047C62.7407 15.2148 62.8562 15.0373 62.9662 14.8721C63.0762 14.7097 63.1725 14.568 63.255 14.4469C63.3348 14.3258 63.3843 14.2515 63.4035 14.224H64.1214C64.1819 13.7121 64.2301 13.2841 64.2658 12.9401C64.3043 12.5933 64.3346 12.3057 64.3566 12.0773C64.3813 11.8489 64.4034 11.6728 64.4226 11.5489C64.4419 11.4251 64.4639 11.3329 64.4886 11.2723C64.5106 11.2118 64.5409 11.1732 64.5794 11.1567C64.6151 11.1375 64.6633 11.1223 64.7238 11.1113C65.0263 11.0508 65.3193 10.9944 65.6026 10.9421C65.8831 10.8925 66.165 10.8402 66.4483 10.7852C66.7289 10.7329 67.015 10.671 67.3065 10.5994C67.6008 10.5306 67.9048 10.448 68.2183 10.3517C68.2403 10.3517 68.2541 10.3503 68.2596 10.3476C68.2678 10.3448 68.2816 10.3435 68.3008 10.3435C68.3806 10.3435 68.4205 10.371 68.4205 10.426V10.4425C68.3875 10.8141 68.3352 11.3287 68.2637 11.9865C68.1949 12.6443 68.1165 13.3901 68.0285 14.224H70.7268C70.7818 14.224 70.834 14.2419 70.8835 14.2777C70.9331 14.3162 70.9578 14.3795 70.9578 14.4676C70.9578 14.5006 70.9179 14.6203 70.8382 14.8267C70.7584 15.0359 70.6443 15.3083 70.4957 15.6441L70.1327 16.4615C70.0859 16.5633 70.0378 16.6376 69.9883 16.6844C69.9388 16.7312 69.8356 16.7615 69.6788 16.7752ZM71.9645 24.5156L71.8366 21.7621C71.8366 21.7566 71.8339 21.7525 71.8284 21.7497C71.8256 21.7442 71.8242 21.7387 71.8242 21.7332C71.8242 21.6452 71.871 21.6011 71.9645 21.6011C72.025 21.6011 72.0787 21.6245 72.1254 21.6713C72.395 21.9273 72.703 22.1364 73.0496 22.2988C73.3961 22.4584 73.7702 22.5382 74.1718 22.5382C74.2791 22.5382 74.4028 22.5272 74.5431 22.5052C74.6861 22.4804 74.8209 22.4419 74.9474 22.3896C75.074 22.3346 75.1799 22.2616 75.2651 22.1708C75.3476 22.08 75.3889 21.9672 75.3889 21.8323C75.3889 21.6864 75.3531 21.5502 75.2816 21.4236C75.2074 21.2998 75.1097 21.1979 74.9887 21.1181C74.9199 21.0713 74.8017 20.9888 74.6339 20.8704C74.4661 20.7521 74.2873 20.6269 74.0975 20.4948C73.905 20.3599 73.7235 20.2319 73.5529 20.1108C73.3824 19.9897 73.2627 19.9017 73.194 19.8466C72.8914 19.6182 72.6521 19.387 72.4761 19.1531C72.2973 18.9164 72.1612 18.6728 72.0676 18.4224C71.9741 18.1692 71.9136 17.905 71.8861 17.6298C71.8586 17.3546 71.8449 17.0628 71.8449 16.7546C71.8449 16.284 71.9686 15.8409 72.2162 15.4253C72.4665 15.007 72.7938 14.6396 73.1981 14.3231C73.6052 14.0093 74.0673 13.7603 74.5844 13.5759C75.1015 13.3887 75.6282 13.2951 76.1645 13.2951C76.6101 13.2951 77.0474 13.3626 77.4765 13.4974C77.9056 13.6323 78.3044 13.8607 78.673 14.1827C78.7088 14.6065 78.7321 15.0235 78.7431 15.4336C78.7569 15.8436 78.7775 16.273 78.805 16.7216C78.805 16.8096 78.7844 16.8688 78.7431 16.8991C78.7046 16.9294 78.6579 16.9445 78.6029 16.9445C78.5561 16.9445 78.5162 16.928 78.4832 16.895C78.3292 16.7463 78.171 16.6005 78.0088 16.4574C77.8492 16.3115 77.6801 16.1835 77.5013 16.0734C77.3225 15.9634 77.1327 15.8725 76.9319 15.801C76.7311 15.7294 76.5166 15.6936 76.2883 15.6936C76.1453 15.6936 76.0036 15.706 75.8633 15.7308C75.7231 15.7556 75.5952 15.7996 75.4797 15.8629C75.3669 15.9262 75.2747 16.0115 75.2032 16.1188C75.1345 16.2262 75.1001 16.3638 75.1001 16.5317C75.1001 16.7271 75.1235 16.895 75.1702 17.0353C75.217 17.1757 75.327 17.3133 75.5003 17.4481L77.3734 18.7196C77.7172 18.9536 77.995 19.1834 78.2068 19.409C78.4186 19.6347 78.585 19.8576 78.706 20.0778C78.827 20.3007 78.9082 20.5209 78.9494 20.7383C78.9934 20.9585 79.0154 21.1759 79.0154 21.3906C79.0154 21.9961 78.8765 22.5286 78.5987 22.9882C78.3209 23.4478 77.9606 23.8304 77.5178 24.1358C77.0722 24.4413 76.5702 24.6739 76.0119 24.8335C75.4508 24.9904 74.8883 25.0688 74.3244 25.0688C73.8926 25.0688 73.4773 25.0234 73.0785 24.9326C72.6796 24.8418 72.3083 24.7028 71.9645 24.5156ZM80.1954 18.0343C80.1954 17.261 80.2834 16.5207 80.4595 15.8134C80.6382 15.1033 80.8927 14.4414 81.2227 13.8277C81.55 13.2112 81.9475 12.6525 82.4151 12.1516C82.8827 11.6507 83.4053 11.2214 83.9829 10.8636C84.5605 10.5031 85.1862 10.2251 85.8601 10.0297C86.534 9.83707 87.2436 9.74075 87.989 9.74075C88.5803 9.74075 89.1002 9.77928 89.5485 9.85634C89.9941 9.9334 90.3833 10.0297 90.7161 10.1453C91.0489 10.2637 91.3267 10.393 91.5495 10.5334C91.7751 10.6765 91.9621 10.8113 92.1106 10.9379C92.1024 10.9379 92.0982 10.9613 92.0982 11.0081C92.0982 11.1099 92.1079 11.2943 92.1271 11.5613C92.1436 11.831 92.1629 12.131 92.1849 12.4612C92.2096 12.7888 92.2303 13.1231 92.2468 13.4644C92.2633 13.8029 92.2715 14.096 92.2715 14.3437C92.2715 14.385 92.2578 14.4304 92.2303 14.4799C92.2028 14.5322 92.1354 14.5584 92.0281 14.5584C91.9676 14.5584 91.8947 14.5474 91.8094 14.5254C91.6664 14.4868 91.4876 14.3946 91.2731 14.2488C91.0585 14.1057 90.8083 13.9543 90.5222 13.7947C90.2389 13.6378 89.9198 13.4974 89.565 13.3736C89.213 13.2497 88.8293 13.1878 88.4139 13.1878C87.8638 13.1878 87.3632 13.3034 86.9122 13.5346C86.4638 13.7658 86.0815 14.0878 85.7652 14.5006C85.4489 14.9134 85.2041 15.4047 85.0308 15.9744C84.8548 16.5413 84.7668 17.1578 84.7668 17.8238C84.7668 18.4073 84.8204 18.9549 84.9277 19.4668C85.0349 19.976 85.1986 20.4177 85.4186 20.792C85.6359 21.1635 85.9055 21.4566 86.2273 21.6713C86.5491 21.886 86.9287 21.9933 87.366 21.9933C87.7896 21.9933 88.2695 21.9025 88.8059 21.7208L89.0369 20.3007H87.1143C87.2628 19.4889 87.3907 18.8504 87.498 18.3852C87.6053 17.9229 87.7057 17.5734 87.7992 17.3367C87.8927 17.1027 87.9904 16.9555 88.0921 16.895C88.1911 16.8344 88.308 16.8041 88.4428 16.8041H93.7403C93.8971 16.8041 94.0098 16.8138 94.0786 16.833C94.1501 16.855 94.1859 16.9266 94.1859 17.0477C94.1859 17.1082 94.179 17.1798 94.1653 17.2624C94.1515 17.3477 94.135 17.4509 94.1157 17.572L93.6124 19.2646C93.5519 19.4792 93.501 19.6457 93.4597 19.7641C93.4185 19.8797 93.3676 19.9663 93.3071 20.0241C93.2466 20.0819 93.1654 20.115 93.0637 20.1232C92.9592 20.1342 92.8092 20.1397 92.614 20.1397C92.5067 20.1397 92.4434 20.1838 92.4242 20.2718C92.4022 20.3599 92.3843 20.4507 92.3705 20.5443C92.332 20.8388 92.2922 21.1319 92.2509 21.4236C92.2096 21.7181 92.1711 21.9906 92.1354 22.241C92.0996 22.4942 92.0611 22.7157 92.0199 22.9056C91.9786 23.0983 91.9387 23.2387 91.9002 23.3267C91.4436 23.6157 91.0283 23.8689 90.6542 24.0863C90.2829 24.3037 89.9116 24.4854 89.5403 24.6312C89.1717 24.7743 88.7825 24.8831 88.3727 24.9574C87.9628 25.0317 87.4925 25.0688 86.9617 25.0688C86.0155 25.0688 85.1298 24.8968 84.3047 24.5528C83.4795 24.2115 82.763 23.7299 82.1551 23.1079C81.5473 22.4859 81.0687 21.7456 80.7194 20.8869C80.3701 20.0255 80.1954 19.0747 80.1954 18.0343ZM100.42 25.0688C99.4737 25.0688 98.6431 24.9147 97.9279 24.6065C97.2128 24.2955 96.6132 23.884 96.1291 23.3721C95.645 22.8575 95.282 22.2658 95.0399 21.597C94.7979 20.9282 94.6768 20.2347 94.6768 19.5164C94.6768 18.7981 94.7951 18.1142 95.0317 17.4646C95.2655 16.8151 95.5941 16.2344 96.0177 15.7225C96.4413 15.2079 96.9488 14.7772 97.5401 14.4304C98.1287 14.0836 98.7792 13.8497 99.4916 13.7286C99.5989 13.7231 99.6525 13.6997 99.6525 13.6584C99.6525 13.5841 99.6443 13.5153 99.6278 13.452C99.6113 13.3887 99.603 13.3337 99.603 13.2869C99.603 13.2126 99.6168 13.1617 99.6443 13.1341C99.6718 13.1094 99.702 13.097 99.735 13.097C101.017 13.097 102.107 13.2429 103.007 13.5346C103.906 13.8263 104.638 14.224 105.202 14.7276C105.768 15.2313 106.178 15.8257 106.431 16.511C106.687 17.1963 106.815 17.9325 106.815 18.7196C106.815 19.7214 106.647 20.6145 106.312 21.3988C105.976 22.186 105.518 22.852 104.938 23.3969C104.357 23.9391 103.679 24.3533 102.904 24.6395C102.128 24.9257 101.3 25.0688 100.42 25.0688ZM98.5551 19.4049C98.5551 19.7682 98.5936 20.1273 98.6706 20.4824C98.7476 20.8402 98.8755 21.1622 99.0543 21.4484C99.2331 21.7374 99.4669 21.9713 99.7557 22.1502C100.044 22.3291 100.403 22.4185 100.832 22.4185C101.141 22.4047 101.41 22.3359 101.641 22.2121C101.875 22.0883 102.076 21.9273 102.244 21.7291C102.411 21.5309 102.55 21.3066 102.66 21.0562C102.77 20.8085 102.858 20.5526 102.924 20.2883C102.988 20.0214 103.032 19.7599 103.056 19.504C103.084 19.2508 103.098 19.0196 103.098 18.8104C103.098 18.4609 103.045 18.1183 102.941 17.7825C102.839 17.4468 102.686 17.1509 102.483 16.895C102.282 16.639 102.032 16.4326 101.732 16.2757C101.435 16.1161 101.091 16.0363 100.7 16.0363C100.299 16.0363 99.9606 16.156 99.6855 16.3954C99.4077 16.6349 99.1877 16.9294 99.0254 17.2789C98.8604 17.6284 98.7407 17.9958 98.6665 18.3811C98.5922 18.7664 98.5551 19.1077 98.5551 19.4049Z" fill="white"/>
</g>
</g>
</g>
</g>
</g>
</g>
</g>
<line x1="86.5339" y1="6.55682e-08" x2="86.5339" y2="7.44828" stroke="white" stroke-width="3" stroke-dasharray="4.5 2.25"/>
<line x1="86.5339" y1="28.5517" x2="86.5339" y2="36" stroke="white" stroke-width="3" stroke-dasharray="4.5 2.25"/>
<defs>
<clipPath id="clip0_7588_3492">
<rect width="97.0334" height="17.3793" fill="white" transform="translate(9.92358 8.069)"/>
</clipPath>
<clipPath id="clip1_7588_3492">
<rect width="96.7575" height="17.3233" fill="white" transform="translate(10.0605 8.09705)"/>
</clipPath>
<clipPath id="clip2_7588_3492">
<rect width="96.7575" height="17.3233" fill="white" transform="translate(10.0601 8.09702)"/>
</clipPath>
<clipPath id="clip3_7588_3492">
<rect width="96.7575" height="17.3233" fill="white" transform="translate(10.0592 8.09702)"/>
</clipPath>
<clipPath id="clip4_7588_3492">
<rect width="96.7575" height="17.3233" fill="white" transform="translate(10.0588 8.09698)"/>
</clipPath>
<clipPath id="clip5_7588_3492">
<rect width="96.7575" height="17.3233" fill="white" transform="translate(10.0583 8.09695)"/>
</clipPath>
<clipPath id="clip6_7588_3492">
<rect width="96.7575" height="17.3233" fill="white" transform="translate(10.0579 8.09692)"/>
</clipPath>
</defs>
</svg>
